<svg width="1664" height="1400" viewBox="0 0 1664 1400" fill="none" xmlns="http://www.w3.org/2000/svg">
<g filter="url(#filter0_f_656_33)">
<circle cx="858" cy="700" r="500" fill="url(#paint0_radial_656_33)" fill-opacity="0.6"/>
</g>
<g style="mix-blend-mode:overlay">
<path d="M744.07 467.16C535.617 491.539 381 581.015 381 687.665C381 813.07 594.781 914.731 858.493 914.731C1122.2 914.731 1335.99 813.07 1335.99 687.665C1335.99 577.564 1171.2 485.766 952.514 465" stroke="url(#paint1_angular_656_33)" stroke-width="1.70856" stroke-linecap="round"/>
</g>
<g style="mix-blend-mode:overlay">
<path d="M744.07 468.76C535.617 493.138 381 582.615 381 689.264C381 814.669 594.781 916.33 858.493 916.33C1122.2 916.33 1335.99 814.669 1335.99 689.264C1335.99 579.164 1171.2 487.366 952.514 466.599" stroke="url(#paint2_angular_656_33)" stroke-width="1.70856" stroke-linecap="round"/>
</g>
<g style="mix-blend-mode:overlay">
<path d="M968.746 472.28C1179.3 495.946 1335.99 585.903 1335.99 693.263C1335.99 818.668 1122.2 920.328 858.493 920.328C594.781 920.328 381 818.668 381 693.263C381 588.369 530.568 500.088 733.818 474.015" stroke="url(#paint3_angular_656_33)" stroke-width="1.70856" stroke-linecap="round"/>
</g>
<g style="mix-blend-mode:overlay">
<path d="M717.587 482.643C522.655 511.231 381 597.579 381 699.66C381 825.065 594.781 926.726 858.493 926.726C1122.2 926.726 1335.99 825.065 1335.99 699.66C1335.99 594.27 1185 505.65 980.279 480.046" stroke="url(#paint4_angular_656_33)" stroke-width="1.70856" stroke-linecap="round"/>
</g>
<g style="mix-blend-mode:overlay">
<path d="M997.791 491.204C1193.55 519.553 1335.99 606.094 1335.99 708.456C1335.99 833.861 1122.2 935.522 858.493 935.522C594.781 935.522 381 833.861 381 708.456C381 609.457 514.228 525.256 700.074 494.185" stroke="url(#paint5_angular_656_33)" stroke-width="1.70856" stroke-linecap="round"/>
</g>
<g style="mix-blend-mode:overlay">
<path d="M633.195 297.756C270.801 340.138 2 495.692 2 681.102C2 899.118 373.657 1075.85 832.119 1075.85C1290.58 1075.85 1662.24 899.118 1662.24 681.102C1662.24 489.693 1375.76 330.102 995.575 294" stroke="url(#paint6_angular_656_33)" stroke-width="2.97033" stroke-linecap="round"/>
</g>
<g style="mix-blend-mode:overlay">
<path d="M633.195 300.536C270.801 342.918 2 498.472 2 683.882C2 901.898 373.657 1078.63 832.119 1078.63C1290.58 1078.63 1662.24 901.898 1662.24 683.882C1662.24 492.473 1375.76 332.882 995.575 296.78" stroke="url(#paint7_angular_656_33)" stroke-width="2.97033" stroke-linecap="round"/>
</g>
<g style="mix-blend-mode:overlay">
<path d="M1023.79 306.656C1389.85 347.8 1662.24 504.19 1662.24 690.834C1662.24 908.85 1290.58 1085.59 832.119 1085.59C373.657 1085.59 2 908.85 2 690.834C2 508.476 262.023 354.999 615.373 309.672" stroke="url(#paint8_angular_656_33)" stroke-width="2.97033" stroke-linecap="round"/>
</g>
<g style="mix-blend-mode:overlay">
<path d="M587.155 324.672C248.266 374.372 2 524.487 2 701.955C2 919.971 373.657 1096.71 832.119 1096.71C1290.58 1096.71 1662.24 919.971 1662.24 701.955C1662.24 518.735 1399.75 364.67 1043.84 320.158" stroke="url(#paint9_angular_656_33)" stroke-width="2.97033" stroke-linecap="round"/>
</g>
<g style="mix-blend-mode:overlay">
<path d="M1074.29 339.556C1414.62 388.84 1662.24 539.292 1662.24 717.247C1662.24 935.263 1290.58 1112 832.119 1112C373.657 1112 2 935.263 2 717.247C2 545.139 233.616 398.756 556.709 344.739" stroke="url(#paint10_angular_656_33)" stroke-width="2.97033" stroke-linecap="round"/>
</g>
<defs>
<filter id="filter0_f_656_33" x="158" y="0" width="1400" height="1400" filterUnits="userSpaceOnUse" color-interpolation-filters="sRGB">
<feFlood flood-opacity="0" result="BackgroundImageFix"/>
<feBlend mode="normal" in="SourceGraphic" in2="BackgroundImageFix" result="shape"/>
<feGaussianBlur stdDeviation="100" result="effect1_foregroundBlur_656_33"/>
</filter>
<radialGradient id="paint0_radial_656_33" cx="0" cy="0" r="1" gradientUnits="userSpaceOnUse" gradientTransform="translate(823 785) rotate(89.2284) scale(594.054)">
<stop stop-color="#6AEE5D"/>
<stop offset="1" stop-color="#051A4F"/>
</radialGradient>
<radialGradient id="paint1_angular_656_33" cx="0" cy="0" r="1" gradientUnits="userSpaceOnUse" gradientTransform="translate(865.381 709.459) scale(508.767 237.904)">
<stop offset="0.458333" stop-color="white"/>
<stop offset="0.717799" stop-color="white" stop-opacity="0"/>
<stop offset="0.782437" stop-color="white" stop-opacity="0"/>
<stop offset="1" stop-color="white" stop-opacity="0.4"/>
</radialGradient>
<radialGradient id="paint2_angular_656_33" cx="0" cy="0" r="1" gradientUnits="userSpaceOnUse" gradientTransform="translate(865.381 711.059) scale(508.767 237.905)">
<stop offset="0.458333" stop-color="white"/>
<stop offset="0.717799" stop-color="white" stop-opacity="0"/>
<stop offset="0.782437" stop-color="white" stop-opacity="0"/>
<stop offset="1" stop-color="white" stop-opacity="0.4"/>
</radialGradient>
<radialGradient id="paint3_angular_656_33" cx="0" cy="0" r="1" gradientUnits="userSpaceOnUse" gradientTransform="translate(865.381 715.825) scale(508.767 237.015)">
<stop offset="0.458333" stop-color="white"/>
<stop offset="0.717799" stop-color="white" stop-opacity="0"/>
<stop offset="0.782437" stop-color="white" stop-opacity="0"/>
<stop offset="1" stop-color="white" stop-opacity="0.4"/>
</radialGradient>
<radialGradient id="paint4_angular_656_33" cx="0" cy="0" r="1" gradientUnits="userSpaceOnUse" gradientTransform="translate(865.381 722.847) scale(508.767 236.29)">
<stop offset="0.458333" stop-color="white"/>
<stop offset="0.717799" stop-color="white" stop-opacity="0"/>
<stop offset="0.782437" stop-color="white" stop-opacity="0"/>
<stop offset="1" stop-color="white" stop-opacity="0.4"/>
</radialGradient>
<radialGradient id="paint5_angular_656_33" cx="0" cy="0" r="1" gradientUnits="userSpaceOnUse" gradientTransform="translate(865.381 732.721) scale(508.767 235.041)">
<stop offset="0.458333" stop-color="white"/>
<stop offset="0.717799" stop-color="white" stop-opacity="0"/>
<stop offset="0.782437" stop-color="white" stop-opacity="0"/>
<stop offset="1" stop-color="white" stop-opacity="0.4"/>
</radialGradient>
<radialGradient id="paint6_angular_656_33" cx="0" cy="0" r="1" gradientUnits="userSpaceOnUse" gradientTransform="translate(844.095 718.992) scale(884.489 413.596)">
<stop offset="0.458333" stop-color="white"/>
<stop offset="0.717799" stop-color="white" stop-opacity="0"/>
<stop offset="0.782437" stop-color="white" stop-opacity="0"/>
<stop offset="1" stop-color="white" stop-opacity="0.4"/>
</radialGradient>
<radialGradient id="paint7_angular_656_33" cx="0" cy="0" r="1" gradientUnits="userSpaceOnUse" gradientTransform="translate(844.095 721.772) scale(884.489 413.596)">
<stop offset="0.458333" stop-color="white"/>
<stop offset="0.717799" stop-color="white" stop-opacity="0"/>
<stop offset="0.782437" stop-color="white" stop-opacity="0"/>
<stop offset="1" stop-color="white" stop-opacity="0.4"/>
</radialGradient>
<radialGradient id="paint8_angular_656_33" cx="0" cy="0" r="1" gradientUnits="userSpaceOnUse" gradientTransform="translate(844.095 730.058) scale(884.489 412.049)">
<stop offset="0.458333" stop-color="white"/>
<stop offset="0.717799" stop-color="white" stop-opacity="0"/>
<stop offset="0.782437" stop-color="white" stop-opacity="0"/>
<stop offset="1" stop-color="white" stop-opacity="0.4"/>
</radialGradient>
<radialGradient id="paint9_angular_656_33" cx="0" cy="0" r="1" gradientUnits="userSpaceOnUse" gradientTransform="translate(844.095 742.266) scale(884.489 410.79)">
<stop offset="0.458333" stop-color="white"/>
<stop offset="0.717799" stop-color="white" stop-opacity="0"/>
<stop offset="0.782437" stop-color="white" stop-opacity="0"/>
<stop offset="1" stop-color="white" stop-opacity="0.4"/>
</radialGradient>
<radialGradient id="paint10_angular_656_33" cx="0" cy="0" r="1" gradientUnits="userSpaceOnUse" gradientTransform="translate(844.095 759.432) scale(884.489 408.618)">
<stop offset="0.458333" stop-color="white"/>
<stop offset="0.717799" stop-color="white" stop-opacity="0"/>
<stop offset="0.782437" stop-color="white" stop-opacity="0"/>
<stop offset="1" stop-color="white" stop-opacity="0.4"/>
</radialGradient>
</defs>
</svg>
